<?xml version="1.0" encoding="UTF-8"?>
<svg xmlns="http://www.w3.org/2000/svg" xmlns:xlink="http://www.w3.org/1999/xlink" width="64px" height="64px" viewBox="0 0 64 64" version="1.1">
<g id="surface1">
<path style=" stroke:none;fill-rule:nonzero;fill:rgb(0%,0%,0%);fill-opacity:1;" d="M 19.8125 57.0625 C 21.074219 56.441406 22.335938 55.824219 23.484375 55.257812 C 22.570312 54.949219 21.503906 54.929688 20.496094 55.683594 C 19.328125 56.554688 17.933594 56.679688 16.550781 56.761719 C 15.640625 56.816406 14.726562 56.773438 13.789062 56.683594 C 14.265625 56.566406 14.734375 56.421875 15.214844 56.328125 C 17.167969 55.949219 18.96875 55.257812 20.644531 54.136719 C 21.25 53.730469 22.136719 53.675781 22.910156 53.59375 C 24.898438 53.382812 26.652344 52.074219 26.957031 50.433594 C 27.261719 48.804688 26.488281 46.886719 24.789062 45.941406 C 23.972656 45.484375 23.023438 45.191406 22.101562 45.023438 C 20.507812 44.738281 19.496094 45.613281 18.765625 46.953125 C 18.152344 48.082031 17.328125 48.96875 15.941406 49.144531 C 14.75 49.296875 13.785156 48.84375 12.714844 48.015625 C 13.121094 48.101562 13.347656 48.113281 13.539062 48.199219 C 15.1875 48.910156 17.582031 47.617188 17.871094 45.882812 C 17.988281 45.1875 17.828125 44.691406 17.183594 44.453125 C 16.347656 44.140625 15.5 43.824219 14.625 43.660156 C 13.5625 43.464844 12.710938 43.996094 11.976562 44.726562 C 11.179688 45.523438 10.449219 46.433594 9.246094 46.617188 C 8.757812 46.691406 8.25 46.628906 7.734375 46.519531 C 9.832031 46.402344 10.953125 45.035156 11.769531 43.382812 C 12.464844 41.96875 13.824219 41.566406 15.335938 42.320312 C 16.015625 42.660156 16.761719 42.863281 17.609375 43.171875 C 17.609375 42.609375 17.609375 42.304688 17.609375 41.945312 C 17.792969 41.953125 17.964844 41.910156 18.046875 41.972656 C 19.667969 43.28125 21.773438 43.109375 23.597656 43.785156 C 23.828125 43.867188 24.308594 43.671875 24.453125 43.457031 C 24.597656 43.242188 24.59375 42.71875 24.425781 42.546875 C 22.777344 40.792969 21.089844 39 18.4375 39.027344 C 17.605469 39.035156 16.730469 39.386719 15.960938 39.757812 C 14.585938 40.425781 13.179688 40.558594 11.75 40.179688 C 10.574219 39.867188 9.625 40.210938 8.699219 40.84375 C 8.332031 41.09375 7.960938 41.335938 7.617188 41.609375 C 6.746094 42.300781 5.820312 42.308594 4.824219 41.78125 C 4.804688 41.691406 4.796875 41.625 4.796875 41.625 C 6.160156 41.800781 7.171875 41.152344 8.09375 40.253906 C 9.273438 39.105469 10.671875 38.878906 12.242188 39.277344 C 13.292969 39.539062 14.171875 39.179688 14.421875 38.507812 C 14.703125 37.738281 14.421875 37.230469 13.589844 37.300781 C 12.652344 37.378906 11.710938 37.59375 10.808594 37.871094 C 9.617188 38.238281 8.40625 38.671875 7.390625 37.65625 C 6.878906 37.144531 6.550781 36.398438 6.277344 35.703125 C 5.882812 34.710938 5.316406 33.925781 4.3125 33.371094 C 4.285156 33.214844 4.28125 33.152344 4.28125 33.09375 C 5.21875 33.023438 5.921875 33.449219 6.457031 34.175781 C 6.65625 34.445312 6.84375 34.742188 6.960938 35.054688 C 7.742188 37.167969 9.035156 37.828125 11.367188 36.601562 C 12.964844 35.761719 14.449219 35.757812 15.953125 36.75 C 16.65625 37.214844 17.433594 37.449219 18.285156 37.328125 C 18.894531 37.238281 19.253906 37.023438 19.066406 36.265625 C 18.644531 34.546875 17.382812 33.828125 15.398438 34.269531 C 15.015625 34.355469 14.636719 34.472656 14.25 34.542969 C 13.089844 34.761719 12.128906 34.453125 11.25 33.609375 C 10.710938 33.089844 9.976562 32.722656 9.273438 32.429688 C 7.8125 31.828125 7.28125 31.066406 7.503906 29.488281 C 7.675781 29.511719 7.75 29.554688 7.824219 29.601562 C 7.9375 30.695312 8.648438 31.265625 9.585938 31.671875 C 10.433594 32.039062 11.28125 32.417969 12.085938 32.863281 C 13.15625 33.449219 14.234375 33.371094 15.273438 32.925781 C 17.402344 32.011719 19.171875 32.96875 20.03125 34.902344 C 20.683594 36.371094 21.683594 37.609375 23.1875 38.328125 C 24.453125 38.925781 25.160156 38.460938 25.15625 37.058594 C 25.152344 34.179688 22.496094 31.246094 19.539062 30.988281 C 18.167969 30.867188 16.773438 30.976562 15.390625 30.976562 C 13.699219 30.980469 12.8125 30.339844 12.246094 28.71875 C 12.164062 28.480469 12.082031 28.242188 12.003906 28 C 11.617188 26.816406 10.6875 26.253906 9.472656 26.441406 C 8.367188 26.613281 7.238281 26.996094 6.191406 26.03125 C 6.175781 25.824219 6.191406 25.753906 6.203125 25.683594 C 7.339844 26.09375 8.425781 25.71875 9.53125 25.507812 C 11.128906 25.203125 12.007812 25.753906 12.648438 27.257812 C 12.964844 27.996094 13.351562 28.722656 13.835938 29.359375 C 14.285156 29.949219 16.070312 30.253906 16.699219 29.910156 C 17.15625 29.652344 17.519531 29.261719 17.171875 28.652344 C 16.984375 28.316406 16.804688 27.972656 16.550781 27.503906 C 16.84375 27.636719 17.0625 27.679688 17.207031 27.808594 C 18.226562 28.730469 19.476562 29.113281 20.761719 29.476562 C 24.183594 30.441406 26.628906 32.460938 27.445312 36.050781 C 27.671875 37.066406 27.542969 38.15625 27.734375 39.179688 C 27.957031 40.359375 28.296875 41.523438 28.699219 42.652344 C 28.84375 43.058594 29.28125 43.402344 29.660156 43.671875 C 30.574219 44.328125 31.433594 43.941406 31.480469 42.828125 C 31.515625 42.011719 31.441406 41.179688 31.316406 40.371094 C 30.894531 37.65625 30.179688 35.027344 28.597656 32.726562 C 27.6875 31.398438 26.472656 30.398438 24.996094 29.730469 C 22.632812 28.660156 20.351562 27.476562 18.398438 25.707031 C 17.371094 24.777344 16.019531 24.460938 14.65625 24.296875 C 13.242188 24.128906 12.054688 23.609375 11.382812 22.234375 C 10.898438 21.25 10.121094 20.59375 8.964844 20.277344 C 8.898438 20.035156 8.898438 19.871094 8.898438 19.707031 C 10.679688 19.410156 11.804688 20.441406 12.765625 21.695312 C 13.75 22.980469 15.160156 23.421875 16.621094 23.746094 C 16.835938 23.796875 17.207031 23.328125 17.4375 23.046875 C 17.546875 22.90625 17.492188 22.636719 17.535156 22.183594 C 17.851562 22.789062 18.011719 23.210938 18.277344 23.558594 C 18.574219 23.941406 18.910156 24.359375 19.328125 24.566406 C 19.679688 24.738281 20.386719 24.808594 20.554688 24.605469 C 20.859375 24.242188 21.054688 23.613281 20.984375 23.140625 C 20.71875 21.28125 19.867188 20.503906 17.953125 20.175781 C 15.585938 19.769531 13.957031 17.875 14.046875 15.585938 C 14.085938 14.664062 14.460938 13.867188 15.238281 13.238281 C 15.175781 13.511719 15.132812 13.789062 15.042969 14.054688 C 14.273438 16.394531 15.59375 18.515625 18.019531 18.832031 C 18.554688 18.90625 19.09375 18.957031 19.609375 19.097656 C 21.300781 19.550781 22.230469 20.625 22.375 22.535156 C 22.652344 26.097656 24.695312 27.457031 27.882812 28.246094 C 27.992188 28.273438 28.109375 28.300781 28.21875 28.289062 C 28.777344 28.21875 29.675781 28.300781 29.808594 28.019531 C 30.03125 27.5625 29.945312 26.71875 29.636719 26.304688 C 29.097656 25.582031 28.371094 24.902344 27.574219 24.5 C 26.121094 23.765625 25.277344 22.683594 24.597656 21.214844 C 23.898438 19.699219 22.757812 18.390625 21.855469 16.964844 C 21.410156 16.261719 20.984375 15.519531 20.691406 14.742188 C 20.351562 13.835938 19.859375 13.089844 19.101562 12.496094 C 18.140625 11.742188 17.667969 10.765625 17.808594 9.527344 C 17.828125 9.363281 17.914062 9.210938 18.144531 9.058594 C 18.191406 9.230469 18.265625 9.394531 18.28125 9.570312 C 18.382812 10.835938 19.085938 11.695312 20.101562 12.375 C 20.757812 12.8125 21.242188 12.78125 21.589844 12.023438 C 21.65625 11.878906 21.785156 11.765625 21.980469 11.511719 C 22.019531 11.792969 22.089844 11.949219 22.050781 12.074219 C 21.632812 13.480469 22.042969 14.753906 22.695312 15.972656 C 23.347656 17.1875 24.03125 18.386719 24.734375 19.574219 C 24.855469 19.777344 25.144531 19.878906 25.355469 20.027344 C 25.460938 19.785156 25.652344 19.542969 25.65625 19.296875 C 25.699219 17.589844 25.644531 15.945312 24.445312 14.492188 C 23.550781 13.414062 23.820312 11.851562 25.011719 10.929688 C 26.160156 10.035156 26.738281 9.042969 26.21875 7.550781 C 27.042969 7.902344 27.367188 8.898438 26.925781 9.742188 C 26.671875 10.234375 26.296875 10.6875 25.890625 11.066406 C 24.859375 12.03125 24.53125 13.214844 25.386719 14.28125 C 26.441406 15.597656 26.566406 17.023438 26.53125 18.589844 C 26.515625 19.441406 26.59375 20.355469 26.894531 21.140625 C 27.355469 22.351562 28.625 22.414062 29.683594 22.570312 C 31.738281 22.867188 32.890625 24.53125 33.007812 26.484375 C 33.085938 27.839844 32.972656 29.210938 33.054688 30.566406 C 33.089844 31.105469 33.285156 31.902344 33.652344 32.085938 C 34.285156 32.402344 34.660156 31.671875 34.976562 31.183594 C 36.59375 28.695312 36.742188 25.511719 35.046875 23.421875 C 34.03125 22.171875 32.625 21.226562 31.359375 20.183594 C 30.621094 19.570312 29.738281 19.121094 29.050781 18.460938 C 26.511719 16.035156 27.296875 12.125 30.546875 10.804688 C 30.832031 10.691406 31.113281 10.566406 31.390625 10.429688 C 33.019531 9.613281 33.386719 8.753906 32.828125 6.878906 C 32.773438 6.726562 32.742188 6.703125 32.710938 6.679688 C 32.851562 6.6875 33.050781 6.636719 33.121094 6.707031 C 33.308594 6.910156 33.4375 7.164062 33.601562 7.390625 C 34.429688 8.5625 35.230469 8.503906 36.105469 7.207031 C 36.472656 7.183594 36.714844 7.183594 36.953125 7.183594 C 35.457031 9.234375 33.839844 11.125 31.308594 11.984375 C 29.941406 12.449219 28.8125 13.25 28.746094 14.882812 C 28.730469 15.289062 28.964844 15.707031 29.082031 16.117188 C 29.421875 15.9375 29.761719 15.761719 30.0625 15.605469 C 30.097656 17.230469 30.890625 17.648438 32.496094 17.914062 C 33.554688 18.089844 34.714844 17.945312 35.777344 17.714844 C 37.144531 17.421875 37.464844 16.710938 37.054688 15.363281 C 36.894531 14.828125 36.621094 14.324219 36.449219 13.792969 C 35.914062 12.136719 36.703125 10.554688 38.308594 9.929688 C 39.0625 9.640625 39.839844 9.351562 40.519531 8.925781 C 41.90625 8.0625 42.15625 6.636719 41.246094 5.15625 C 41.238281 4.964844 41.242188 4.894531 41.242188 4.820312 C 42.550781 5.214844 43.179688 7.277344 42.179688 9.007812 C 41.601562 10.003906 40.675781 10.507812 39.671875 10.910156 C 38.011719 11.570312 37.421875 12.824219 38.011719 14.5 C 38.191406 15.003906 38.40625 15.492188 38.609375 15.988281 C 39.078125 17.140625 38.871094 17.710938 37.734375 18.320312 C 37.121094 18.652344 36.484375 18.933594 35.867188 19.257812 C 34.832031 19.800781 34.734375 20.777344 35.761719 21.324219 C 36.984375 21.972656 38.265625 22.621094 39.601562 22.914062 C 40.917969 23.203125 41.890625 21.808594 41.488281 20.476562 C 41.273438 19.777344 40.984375 19.105469 40.753906 18.410156 C 40.277344 16.984375 40.605469 16.058594 41.863281 15.207031 C 42.167969 15 42.453125 14.765625 42.765625 14.578125 C 43.382812 14.210938 43.71875 13.707031 43.703125 12.898438 C 43.839844 12.761719 43.910156 12.703125 43.984375 12.644531 C 44.285156 13.097656 44.273438 13.953125 45.027344 13.835938 C 45.636719 13.746094 46.191406 13.3125 46.859375 13.054688 C 47.070312 13.074219 47.191406 13.070312 47.316406 13.066406 C 47.28125 12.929688 47.246094 12.792969 47.210938 12.65625 C 47.386719 11.753906 47.5625 10.855469 47.734375 9.972656 C 48.699219 11.164062 47.875 14.195312 45.75 14.886719 C 44.75 15.214844 43.746094 15.589844 42.8125 16.078125 C 41.539062 16.75 41.363281 18.464844 42.417969 19.246094 C 42.519531 19.320312 42.683594 19.3125 42.945312 19.339844 C 43.207031 19.335938 43.335938 19.335938 43.46875 19.335938 C 43.453125 19.535156 43.367188 19.765625 43.4375 19.929688 C 43.609375 20.3125 43.78125 20.769531 44.097656 20.988281 C 44.246094 21.09375 44.726562 20.71875 45.121094 20.601562 C 45.304688 20.777344 45.421875 20.917969 45.539062 21.054688 C 45.597656 21.878906 44.9375 22.167969 44.40625 22.511719 C 42.941406 23.457031 41.464844 24.386719 39.960938 25.269531 C 39.25 25.6875 38.921875 26.289062 38.84375 27.046875 C 38.671875 28.675781 38.132812 30.152344 37.335938 31.597656 C 35.640625 34.679688 34.523438 37.972656 34.183594 41.5 C 34.136719 41.980469 33.980469 42.484375 34.085938 42.925781 C 34.1875 43.339844 34.5 43.871094 34.851562 44.007812 C 35.191406 44.140625 35.800781 43.953125 36.121094 43.695312 C 37.585938 42.503906 38.40625 40.878906 38.648438 39.046875 C 38.867188 37.433594 38.824219 35.785156 38.898438 34.152344 C 38.980469 32.285156 39.046875 30.421875 40.058594 28.75 C 40.882812 27.382812 41.9375 26.265625 43.347656 25.511719 C 44.117188 25.101562 44.917969 24.742188 45.683594 24.332031 C 47.160156 23.535156 47.886719 22.277344 47.929688 20.613281 C 47.933594 20.414062 47.949219 20.210938 47.921875 20.015625 C 47.640625 18.191406 48.328125 16.894531 49.964844 16.03125 C 50.9375 15.515625 51.410156 14.640625 51.339844 13.507812 C 51.328125 13.273438 51.375 13.035156 51.398438 12.75 C 52.128906 13.265625 52.273438 14.707031 51.675781 15.597656 C 51.402344 16.007812 51.023438 16.421875 50.59375 16.640625 C 48.207031 17.859375 48.6875 18.964844 48.832031 20.910156 C 48.914062 22.011719 48.800781 23.007812 48.441406 24.011719 C 48.328125 24.328125 48.148438 24.621094 48.007812 24.925781 C 47.773438 25.425781 47.484375 26.050781 48.046875 26.375 C 48.480469 26.625 49.175781 26.671875 49.667969 26.523438 C 51.125 26.078125 51.449219 24.769531 51.671875 23.476562 C 51.914062 22.058594 52.421875 20.796875 53.609375 19.933594 C 54.125 19.558594 54.777344 19.363281 55.367188 19.085938 C 55.429688 19.175781 55.496094 19.265625 55.558594 19.355469 C 55.421875 19.511719 55.3125 19.730469 55.136719 19.8125 C 53.332031 20.6875 52.636719 22.242188 52.523438 24.125 C 52.414062 25.871094 51.558594 27.171875 49.957031 27.699219 C 49.023438 28.007812 47.886719 27.902344 46.882812 27.730469 C 44.175781 27.269531 42.058594 28.339844 41.203125 30.835938 C 41.042969 31.292969 40.941406 32.082031 41.179688 32.285156 C 41.589844 32.632812 42.296875 32.789062 42.867188 32.753906 C 44.246094 32.671875 45.332031 31.867188 46.410156 31.070312 C 47.476562 30.285156 48.523438 29.390625 49.996094 29.613281 C 50.582031 29.703125 51.1875 29.777344 51.730469 29.988281 C 53.191406 30.558594 54.566406 29.203125 54.578125 27.851562 C 54.585938 27.089844 54.363281 26.328125 54.242188 25.578125 C 54.515625 25.558594 55.203125 25.671875 55.320312 25.46875 C 55.699219 24.789062 55.878906 23.992188 56.125 23.238281 C 56.164062 23.109375 56.128906 22.960938 56.128906 22.84375 C 56.75 22.964844 57.324219 23.082031 57.90625 23.199219 C 57.910156 23.171875 57.910156 23.253906 57.890625 23.257812 C 56.207031 23.644531 55.914062 24.839844 55.929688 26.359375 C 55.945312 27.597656 55.679688 28.824219 54.90625 29.871094 C 54.164062 30.882812 53.152344 31.085938 51.976562 30.921875 C 51.203125 30.8125 50.386719 30.632812 49.644531 30.773438 C 48.949219 30.910156 48.195312 31.296875 47.699219 31.800781 C 46.625 32.886719 45.453125 33.648438 43.960938 34.09375 C 42.363281 34.566406 41.105469 35.628906 40.695312 37.359375 C 40.582031 37.832031 40.609375 38.496094 40.875 38.84375 C 41.066406 39.09375 41.839844 39.140625 42.207031 38.96875 C 43.238281 38.476562 44.308594 37.949219 45.15625 37.199219 C 46.183594 36.289062 47.234375 35.789062 48.601562 35.929688 C 50.09375 36.082031 51.445312 35.808594 52.375 34.488281 C 52.699219 34.027344 52.933594 33.503906 53.25 33.039062 C 53.84375 32.167969 55.046875 31.738281 55.964844 32.144531 C 55.707031 32.238281 55.554688 32.300781 55.398438 32.355469 C 54.359375 32.703125 53.710938 33.4375 53.71875 34.246094 C 53.730469 35.117188 54.46875 35.972656 55.476562 36.289062 C 56.210938 36.523438 56.863281 36.414062 57.398438 35.828125 C 57.917969 35.265625 58.433594 34.695312 59.003906 34.199219 C 59.050781 34.425781 59.046875 34.589844 59.042969 34.75 C 58.714844 35.308594 58.417969 35.886719 58.058594 36.417969 C 57.183594 37.703125 55.84375 37.832031 54.53125 36.777344 C 54.175781 36.492188 53.847656 36.179688 53.511719 35.871094 C 52.960938 35.367188 52.414062 35.472656 51.933594 35.945312 C 51.15625 36.707031 50.253906 37.027344 49.167969 36.984375 C 48.523438 36.957031 47.863281 37.03125 47.226562 37.140625 C 46.652344 37.242188 46.410156 37.695312 46.578125 38.222656 C 46.945312 39.402344 48.449219 41.085938 49.972656 40.726562 C 50.703125 40.558594 51.414062 40.109375 52.015625 39.632812 C 53.699219 38.292969 54.960938 38.308594 56.492188 39.820312 C 56.59375 39.917969 56.695312 40.015625 56.796875 40.117188 C 58.355469 41.675781 58.566406 41.761719 60.621094 41.644531 C 59.605469 42.570312 58.578125 42.632812 57.34375 41.808594 C 56.921875 41.527344 56.53125 41.195312 56.144531 40.867188 C 54.433594 39.4375 53.152344 39.855469 51.765625 41.042969 C 50.886719 41.800781 49.925781 42.421875 48.707031 42.050781 C 48.074219 41.855469 47.480469 41.488281 46.902344 41.140625 C 45.015625 39.996094 42.699219 40.222656 41.332031 41.742188 C 41.132812 41.960938 40.957031 42.25 40.886719 42.535156 C 40.703125 43.238281 40.984375 43.578125 41.714844 43.519531 C 42.332031 43.46875 42.945312 43.328125 43.554688 43.214844 C 44.546875 43.03125 45.472656 43.132812 46.277344 43.8125 C 47.402344 44.769531 47.925781 44.765625 49.070312 43.769531 C 49.945312 43.007812 50.914062 42.621094 52.09375 42.769531 C 53.1875 42.910156 53.941406 43.550781 54.625 44.335938 C 55.105469 44.882812 55.613281 45.40625 56.097656 45.949219 C 56.195312 46.058594 56.242188 46.214844 56.3125 46.347656 C 56.144531 46.378906 55.917969 46.5 55.820312 46.429688 C 55.226562 46.007812 54.578125 45.621094 54.109375 45.078125 C 52.519531 43.25 51.257812 43.691406 49.78125 44.5625 C 49.394531 44.792969 49.007812 45.03125 48.601562 45.222656 C 47.175781 45.898438 47.382812 47.179688 48.53125 47.792969 C 49.4375 48.273438 50.472656 48.511719 51.320312 48.808594 C 50.425781 49.578125 47.773438 49.164062 46.816406 47.871094 C 46.566406 47.53125 46.347656 47.171875 46.128906 46.808594 C 45.144531 45.160156 44.363281 44.804688 42.488281 45.160156 C 40.515625 45.535156 38.914062 47.148438 38.632812 49.046875 C 38.332031 51.070312 39.503906 52.871094 41.515625 53.390625 C 42.222656 53.574219 42.96875 53.589844 43.679688 53.761719 C 44.324219 53.917969 44.949219 54.179688 45.574219 54.410156 C 47.308594 55.046875 49.039062 55.691406 50.769531 56.335938 C 51.011719 56.425781 51.257812 56.507812 51.46875 56.742188 C 50.382812 56.742188 49.277344 56.878906 48.222656 56.703125 C 47.167969 56.53125 46.164062 56.050781 45.136719 55.707031 C 45.109375 55.773438 45.082031 55.84375 45.054688 55.910156 C 45.378906 56.054688 45.703125 56.203125 46.03125 56.347656 C 46.011719 56.433594 45.992188 56.519531 45.972656 56.605469 C 45.105469 56.417969 44.234375 56.230469 43.378906 56.046875 C 43.40625 56.238281 43.441406 56.496094 43.46875 56.6875 C 42.59375 56.140625 41.714844 55.59375 40.773438 55.003906 C 40.832031 55.609375 40.875 56.085938 40.917969 56.515625 C 40.226562 55.921875 39.554688 55.347656 38.761719 54.667969 C 38.914062 55.640625 39.023438 56.355469 39.132812 57.058594 C 38.355469 55.9375 37.621094 54.886719 36.890625 53.832031 C 36.78125 53.871094 36.671875 53.910156 36.566406 53.949219 C 36.675781 54.785156 36.789062 55.621094 36.910156 56.535156 C 35.238281 55.59375 36.496094 53.804688 35.515625 52.542969 C 35.515625 54.03125 35.515625 55.367188 35.417969 56.757812 C 35.25 56.8125 35.183594 56.808594 35.113281 56.808594 C 34.875 55.546875 34.636719 54.285156 34.390625 52.90625 C 34.3125 52.679688 34.234375 52.570312 34.15625 52.464844 C 34.117188 52.488281 34.078125 52.515625 34.035156 52.542969 C 34.089844 52.652344 34.140625 52.757812 34.191406 52.867188 C 34.019531 53.886719 33.824219 54.90625 33.6875 55.929688 C 33.625 56.390625 33.679688 56.867188 33.609375 57.410156 C 33.488281 57.484375 33.445312 57.488281 33.402344 57.492188 C 33.320312 56.695312 33.152344 55.898438 33.179688 55.105469 C 33.25 53.277344 33.425781 51.453125 32.742188 49.464844 C 32.652344 50.988281 32.644531 52.300781 32.480469 53.59375 C 32.324219 54.816406 31.996094 56.015625 30.785156 56.976562 C 31.128906 55.996094 31.402344 55.214844 31.679688 54.429688 C 31.613281 54.394531 31.546875 54.363281 31.480469 54.328125 C 30.960938 55.042969 30.445312 55.757812 29.929688 56.472656 C 29.890625 56.464844 29.851562 56.453125 29.8125 56.445312 C 30.085938 55.0625 30.359375 53.6875 30.628906 52.304688 C 30.527344 52.265625 30.425781 52.230469 30.324219 52.191406 C 29.84375 54.183594 29.015625 55.945312 27.195312 57.078125 C 27.355469 56.726562 27.511719 56.375 27.671875 56.019531 C 27.628906 55.96875 27.589844 55.917969 27.550781 55.867188 C 26.792969 56.425781 26.035156 56.988281 25.277344 57.546875 C 25.203125 57.480469 25.128906 57.40625 25.054688 57.335938 C 25.785156 56.417969 26.511719 55.5 27.296875 54.492188 C 27.367188 54.304688 27.378906 54.207031 27.390625 54.113281 C 27.296875 54.164062 27.203125 54.21875 27.113281 54.273438 C 25.644531 55.984375 23.515625 56.324219 21.523438 56.9375 C 21.015625 57.09375 20.507812 57.25 19.921875 57.335938 C 19.832031 57.195312 19.824219 57.128906 19.8125 57.0625 Z M 19.8125 57.0625 "/>
<path style=" stroke:none;fill-rule:nonzero;fill:rgb(0%,0%,0%);fill-opacity:1;" d="M 4.792969 30.753906 C 4.226562 30.582031 3.949219 30.234375 4.144531 29.726562 C 4.234375 29.492188 4.609375 29.164062 4.773438 29.203125 C 5.074219 29.28125 5.558594 29.664062 5.523438 29.804688 C 5.4375 30.15625 5.09375 30.445312 4.792969 30.753906 Z M 4.792969 30.753906 "/>
<path style=" stroke:none;fill-rule:nonzero;fill:rgb(0%,0%,0%);fill-opacity:1;" d="M 59.394531 30.65625 C 59.003906 30.527344 58.605469 30.425781 58.367188 30.171875 C 58.261719 30.0625 58.40625 29.484375 58.574219 29.398438 C 58.835938 29.269531 59.320312 29.25 59.53125 29.414062 C 59.984375 29.777344 59.871094 30.246094 59.394531 30.65625 Z M 59.394531 30.65625 "/>
<path style=" stroke:none;fill-rule:nonzero;fill:rgb(0%,0%,0%);fill-opacity:1;" d="M 29.59375 6.675781 C 29.871094 6.957031 30.203125 7.222656 30.238281 7.527344 C 30.265625 7.714844 29.871094 8.089844 29.617188 8.140625 C 29.40625 8.183594 29.015625 7.929688 28.902344 7.703125 C 28.59375 7.105469 28.890625 6.761719 29.59375 6.675781 Z M 29.59375 6.675781 "/>
<path style=" stroke:none;fill-rule:nonzero;fill:rgb(0%,0%,0%);fill-opacity:1;" d="M 10.117188 15.761719 C 10.609375 15.347656 11.082031 15.191406 11.324219 15.894531 C 11.410156 16.140625 11.324219 16.570312 11.148438 16.75 C 10.992188 16.90625 10.429688 16.941406 10.34375 16.820312 C 10.160156 16.558594 10.167969 16.164062 10.117188 15.761719 Z M 10.117188 15.761719 "/>
<path style=" stroke:none;fill-rule:nonzero;fill:rgb(0%,0%,0%);fill-opacity:1;" d="M 54.136719 16.140625 C 54.695312 15.917969 55.191406 15.953125 55.269531 16.566406 C 55.304688 16.835938 54.988281 17.355469 54.769531 17.394531 C 54.5 17.441406 54.109375 17.152344 53.882812 16.902344 C 53.792969 16.804688 54.007812 16.425781 54.136719 16.140625 Z M 54.136719 16.140625 "/>
<path style=" stroke:none;fill-rule:nonzero;fill:rgb(0%,0%,0%);fill-opacity:1;" d="M 18.714844 15.226562 C 18.679688 15.617188 18.644531 15.988281 18.476562 16.28125 C 18.417969 16.386719 17.941406 16.398438 17.816406 16.28125 C 17.621094 16.105469 17.457031 15.769531 17.46875 15.515625 C 17.5 14.929688 18.007812 14.808594 18.714844 15.226562 Z M 18.714844 15.226562 "/>
<path style=" stroke:none;fill-rule:nonzero;fill:rgb(0%,0%,0%);fill-opacity:1;" d="M 37.003906 7.140625 C 36.714844 7.183594 36.472656 7.183594 36.160156 7.179688 C 36.328125 6.492188 36.566406 5.804688 36.847656 5 C 37.46875 5.675781 37.21875 6.394531 37.003906 7.140625 Z M 37.003906 7.140625 "/>
<path style=" stroke:none;fill-rule:nonzero;fill:rgb(0%,0%,0%);fill-opacity:1;" d="M 59.046875 25.835938 C 59.3125 26.078125 59.550781 26.300781 59.675781 26.578125 C 59.707031 26.644531 59.382812 27 59.210938 27.007812 C 58.988281 27.015625 58.757812 26.808594 58.53125 26.695312 C 58.679688 26.410156 58.828125 26.125 59.046875 25.835938 Z M 59.046875 25.835938 "/>
<path style=" stroke:none;fill-rule:nonzero;fill:rgb(0%,0%,0%);fill-opacity:1;" d="M 50.917969 51.472656 C 50.992188 50.90625 51.1875 50.414062 51.808594 50.796875 C 51.984375 50.90625 52.082031 51.53125 51.949219 51.691406 C 51.644531 52.054688 51.21875 52.007812 50.917969 51.472656 Z M 50.917969 51.472656 "/>
<path style=" stroke:none;fill-rule:nonzero;fill:rgb(0%,0%,0%);fill-opacity:1;" d="M 13.128906 50.71875 C 13.285156 51.039062 13.453125 51.316406 13.449219 51.59375 C 13.449219 51.6875 12.992188 51.867188 12.773438 51.832031 C 12.605469 51.804688 12.328125 51.382812 12.367188 51.335938 C 12.554688 51.078125 12.828125 50.890625 13.128906 50.71875 Z M 13.128906 50.71875 "/>
<path style=" stroke:none;fill-rule:nonzero;fill:rgb(0%,0%,0%);fill-opacity:1;" d="M 60.140625 38.0625 C 60.703125 38.101562 60.851562 38.4375 60.734375 38.871094 C 60.683594 39.046875 60.414062 39.3125 60.308594 39.285156 C 60.074219 39.230469 59.71875 39.015625 59.714844 38.855469 C 59.707031 38.605469 59.945312 38.347656 60.140625 38.0625 Z M 60.140625 38.0625 "/>
<path style=" stroke:none;fill-rule:nonzero;fill:rgb(0%,0%,0%);fill-opacity:1;" d="M 3.769531 38.566406 C 4.0625 38.375 4.34375 38.195312 4.640625 38.160156 C 4.71875 38.152344 4.949219 38.609375 4.917969 38.828125 C 4.898438 38.996094 4.503906 39.28125 4.40625 39.238281 C 4.152344 39.117188 3.972656 38.84375 3.769531 38.566406 Z M 3.769531 38.566406 "/>
<path style=" stroke:none;fill-rule:nonzero;fill:rgb(0%,0%,0%);fill-opacity:1;" d="M 39.027344 21.152344 C 39.152344 20.847656 39.25 20.5625 39.445312 20.402344 C 39.515625 20.34375 39.933594 20.546875 40.007812 20.714844 C 40.089844 20.886719 39.949219 21.160156 39.90625 21.390625 C 39.617188 21.332031 39.328125 21.277344 39.027344 21.152344 Z M 39.027344 21.152344 "/>
<path style=" stroke:none;fill-rule:nonzero;fill:rgb(0%,0%,0%);fill-opacity:1;" d="M 8.695312 43.957031 C 8.449219 44.160156 8.21875 44.355469 7.957031 44.40625 C 7.863281 44.421875 7.605469 44.09375 7.597656 43.917969 C 7.59375 43.742188 7.808594 43.558594 7.925781 43.378906 C 8.183594 43.550781 8.445312 43.722656 8.695312 43.957031 Z M 8.695312 43.957031 "/>
<path style=" stroke:none;fill-rule:nonzero;fill:rgb(0%,0%,0%);fill-opacity:1;" d="M 45.609375 21.039062 C 45.421875 20.917969 45.304688 20.777344 45.179688 20.578125 C 45.277344 20.066406 45.382812 19.613281 45.632812 19.101562 C 45.847656 19.015625 45.917969 18.988281 45.988281 18.960938 C 45.886719 19.648438 45.78125 20.335938 45.609375 21.039062 Z M 45.609375 21.039062 "/>
<path style=" stroke:none;fill-rule:nonzero;fill:rgb(0%,0%,0%);fill-opacity:1;" d="M 8.515625 22.425781 C 8.648438 22.710938 8.765625 22.976562 8.761719 23.242188 C 8.757812 23.339844 8.398438 23.546875 8.3125 23.5 C 8.089844 23.382812 7.933594 23.152344 7.75 22.964844 C 7.984375 22.78125 8.21875 22.597656 8.515625 22.425781 Z M 8.515625 22.425781 "/>
<path style=" stroke:none;fill-rule:nonzero;fill:rgb(0%,0%,0%);fill-opacity:1;" d="M 50.777344 18.175781 C 51.105469 18.257812 51.394531 18.335938 51.621094 18.5 C 51.671875 18.535156 51.550781 18.953125 51.410156 19.058594 C 51.277344 19.152344 50.863281 19.128906 50.832031 19.054688 C 50.734375 18.796875 50.746094 18.496094 50.777344 18.175781 Z M 50.777344 18.175781 "/>
<path style=" stroke:none;fill-rule:nonzero;fill:rgb(0%,0%,0%);fill-opacity:1;" d="M 20.988281 8.582031 C 21.277344 8.707031 21.546875 8.816406 21.710938 9.011719 C 21.765625 9.074219 21.574219 9.492188 21.4375 9.527344 C 21.242188 9.582031 20.828125 9.480469 20.796875 9.367188 C 20.734375 9.140625 20.871094 8.859375 20.988281 8.582031 Z M 20.988281 8.582031 "/>
<path style=" stroke:none;fill-rule:nonzero;fill:rgb(0%,0%,0%);fill-opacity:1;" d="M 45.292969 10.949219 C 45.003906 10.808594 44.78125 10.65625 44.558594 10.507812 C 44.675781 10.328125 44.761719 10.066406 44.925781 10 C 45.070312 9.941406 45.457031 10.078125 45.472656 10.171875 C 45.511719 10.414062 45.40625 10.683594 45.292969 10.949219 Z M 45.292969 10.949219 "/>
<path style=" stroke:none;fill-rule:nonzero;fill:rgb(0%,0%,0%);fill-opacity:1;" d="M 15.53125 20.777344 C 15.621094 21.269531 15.503906 21.636719 15.003906 21.527344 C 14.824219 21.488281 14.726562 21.089844 14.589844 20.855469 C 14.890625 20.808594 15.195312 20.765625 15.53125 20.777344 Z M 15.53125 20.777344 "/>
<path style=" stroke:none;fill-rule:nonzero;fill:rgb(0%,0%,0%);fill-opacity:1;" d="M 16.351562 26.417969 C 16.421875 26.722656 16.480469 27.003906 16.421875 27.257812 C 16.40625 27.324219 15.984375 27.390625 15.835938 27.308594 C 15.691406 27.222656 15.542969 26.832031 15.597656 26.777344 C 15.78125 26.59375 16.054688 26.503906 16.351562 26.417969 Z M 16.351562 26.417969 "/>
<path style=" stroke:none;fill-rule:nonzero;fill:rgb(0%,0%,0%);fill-opacity:1;" d="M 38.71875 6.585938 C 38.902344 6.328125 39.105469 6.113281 39.339844 5.953125 C 39.371094 5.929688 39.671875 6.164062 39.6875 6.296875 C 39.707031 6.488281 39.5625 6.867188 39.515625 6.863281 C 39.253906 6.84375 39.003906 6.730469 38.71875 6.585938 Z M 38.71875 6.585938 "/>
<path style=" stroke:none;fill-rule:nonzero;fill:rgb(0%,0%,0%);fill-opacity:1;" d="M 8.832031 19.695312 C 8.898438 19.871094 8.898438 20.035156 8.898438 20.257812 C 8.5 20.378906 8.09375 20.433594 7.613281 20.414062 C 7.527344 20.285156 7.527344 20.230469 7.523438 20.175781 C 7.9375 20.011719 8.351562 19.847656 8.832031 19.695312 Z M 8.832031 19.695312 "/>
<path style=" stroke:none;fill-rule:nonzero;fill:rgb(0%,0%,0%);fill-opacity:1;" d="M 46.164062 17.796875 C 46.128906 18.140625 46.09375 18.484375 45.917969 18.886719 C 45.707031 18.972656 45.636719 19.003906 45.566406 19.03125 C 45.628906 18.589844 45.691406 18.148438 45.847656 17.679688 C 46.015625 17.703125 46.089844 17.75 46.164062 17.796875 Z M 46.164062 17.796875 "/>
<path style=" stroke:none;fill-rule:nonzero;fill:rgb(0%,0%,0%);fill-opacity:1;" d="M 43.984375 12.582031 C 43.910156 12.703125 43.839844 12.761719 43.714844 12.828125 C 43.535156 12.578125 43.40625 12.324219 43.273438 12.070312 C 43.328125 12.023438 43.386719 11.976562 43.441406 11.933594 C 43.621094 12.128906 43.800781 12.324219 43.984375 12.582031 Z M 43.984375 12.582031 "/>
<path style=" stroke:none;fill-rule:nonzero;fill:rgb(0%,0%,0%);fill-opacity:1;" d="M 59.101562 34.726562 C 59.046875 34.589844 59.050781 34.425781 59.066406 34.183594 C 59.265625 34.015625 59.457031 33.925781 59.644531 33.839844 C 59.691406 33.902344 59.734375 33.964844 59.777344 34.027344 C 59.570312 34.25 59.367188 34.476562 59.101562 34.726562 Z M 59.101562 34.726562 "/>
<path style=" stroke:none;fill-rule:nonzero;fill:rgb(0%,0%,0%);fill-opacity:1;" d="M 7.839844 29.542969 C 7.75 29.554688 7.675781 29.511719 7.5625 29.449219 C 7.628906 29.199219 7.738281 28.96875 7.847656 28.738281 C 7.894531 28.757812 7.941406 28.777344 7.988281 28.796875 C 7.945312 29.023438 7.902344 29.253906 7.839844 29.542969 Z M 7.839844 29.542969 "/>
<path style=" stroke:none;fill-rule:nonzero;fill:rgb(0%,0%,0%);fill-opacity:1;" d="M 43.519531 19.308594 C 43.335938 19.335938 43.207031 19.335938 43.011719 19.335938 C 43.085938 19.121094 43.226562 18.910156 43.367188 18.699219 C 43.433594 18.75 43.503906 18.800781 43.570312 18.851562 C 43.570312 18.992188 43.570312 19.136719 43.519531 19.308594 Z M 43.519531 19.308594 "/>
<path style=" stroke:none;fill-rule:nonzero;fill:rgb(0%,0%,0%);fill-opacity:1;" d="M 47.164062 12.671875 C 47.246094 12.792969 47.28125 12.929688 47.316406 13.066406 C 47.191406 13.070312 47.070312 13.074219 46.914062 13.03125 C 46.957031 12.886719 47.039062 12.785156 47.164062 12.671875 Z M 47.164062 12.671875 "/>
<path style=" stroke:none;fill-rule:nonzero;fill:rgb(0%,0%,0%);fill-opacity:1;" d="M 35.097656 56.871094 C 35.183594 56.808594 35.25 56.8125 35.371094 56.816406 C 35.359375 57.066406 35.292969 57.320312 35.226562 57.570312 C 35.179688 57.5625 35.128906 57.554688 35.082031 57.546875 C 35.082031 57.34375 35.082031 57.136719 35.097656 56.871094 Z M 35.097656 56.871094 "/>
<path style=" stroke:none;fill-rule:nonzero;fill:rgb(0%,0%,0%);fill-opacity:1;" d="M 18.171875 8.46875 C 18.289062 8.390625 18.367188 8.371094 18.449219 8.347656 C 18.371094 8.585938 18.296875 8.828125 18.222656 9.066406 C 18.148438 9.042969 18.078125 9.019531 18.003906 8.992188 C 18.046875 8.835938 18.089844 8.679688 18.171875 8.46875 Z M 18.171875 8.46875 "/>
<path style=" stroke:none;fill-rule:nonzero;fill:rgb(0%,0%,0%);fill-opacity:1;" d="M 36.769531 4.695312 C 36.519531 4.582031 36.308594 4.40625 36.101562 4.226562 C 36.164062 4.164062 36.230469 4.097656 36.292969 4.035156 C 36.46875 4.230469 36.640625 4.429688 36.769531 4.695312 Z M 36.769531 4.695312 "/>
<path style=" stroke:none;fill-rule:nonzero;fill:rgb(0%,0%,0%);fill-opacity:1;" d="M 7.46875 20.1875 C 7.527344 20.230469 7.527344 20.285156 7.535156 20.421875 C 7.386719 20.574219 7.238281 20.648438 7.085938 20.71875 C 7.050781 20.671875 7.019531 20.625 6.984375 20.578125 C 7.125 20.453125 7.269531 20.324219 7.46875 20.1875 Z M 7.46875 20.1875 "/>
<path style=" stroke:none;fill-rule:nonzero;fill:rgb(0%,0%,0%);fill-opacity:1;" d="M 6.171875 25.640625 C 6.191406 25.753906 6.175781 25.824219 6.144531 25.996094 C 5.96875 25.933594 5.816406 25.765625 5.53125 25.457031 C 5.859375 25.53125 6.003906 25.5625 6.171875 25.640625 Z M 6.171875 25.640625 "/>
<path style=" stroke:none;fill-rule:nonzero;fill:rgb(0%,0%,0%);fill-opacity:1;" d="M 33.390625 57.550781 C 33.445312 57.488281 33.488281 57.484375 33.601562 57.484375 C 33.683594 57.699219 33.699219 57.90625 33.710938 58.117188 C 33.679688 58.125 33.644531 58.132812 33.613281 58.140625 C 33.535156 57.964844 33.457031 57.789062 33.390625 57.550781 Z M 33.390625 57.550781 "/>
<path style=" stroke:none;fill-rule:nonzero;fill:rgb(0%,0%,0%);fill-opacity:1;" d="M 59.800781 34.015625 C 59.914062 33.851562 60.085938 33.746094 60.257812 33.644531 C 60.292969 33.707031 60.328125 33.769531 60.363281 33.828125 C 60.195312 33.910156 60.027344 33.992188 59.800781 34.015625 Z M 59.800781 34.015625 "/>
<path style=" stroke:none;fill-rule:nonzero;fill:rgb(0%,0%,0%);fill-opacity:1;" d="M 34.238281 52.871094 C 34.140625 52.757812 34.089844 52.652344 34.035156 52.542969 C 34.078125 52.515625 34.117188 52.488281 34.15625 52.464844 C 34.234375 52.570312 34.3125 52.679688 34.390625 52.839844 C 34.355469 52.886719 34.324219 52.878906 34.238281 52.871094 Z M 34.238281 52.871094 "/>
<path style=" stroke:none;fill-rule:nonzero;fill:rgb(0%,0%,0%);fill-opacity:1;" d="M 46.183594 17.738281 C 46.089844 17.75 46.015625 17.703125 45.902344 17.640625 C 45.921875 17.519531 45.980469 17.414062 46.042969 17.304688 C 46.097656 17.429688 46.148438 17.550781 46.183594 17.738281 Z M 46.183594 17.738281 "/>
<path style=" stroke:none;fill-rule:nonzero;fill:rgb(0%,0%,0%);fill-opacity:1;" d="M 32.722656 6.007812 C 32.835938 6.132812 32.863281 6.25 32.894531 6.367188 C 32.824219 6.371094 32.691406 6.390625 32.6875 6.375 C 32.660156 6.253906 32.652344 6.125 32.722656 6.007812 Z M 32.722656 6.007812 "/>
<path style=" stroke:none;fill-rule:nonzero;fill:rgb(0%,0%,0%);fill-opacity:1;" d="M 55.558594 19.210938 C 55.730469 19.191406 55.828125 19.214844 55.929688 19.234375 C 55.847656 19.324219 55.765625 19.414062 55.6875 19.5 C 55.621094 19.417969 55.554688 19.335938 55.558594 19.210938 Z M 55.558594 19.210938 "/>
<path style=" stroke:none;fill-rule:nonzero;fill:rgb(0%,0%,0%);fill-opacity:1;" d="M 19.765625 57.085938 C 19.824219 57.128906 19.832031 57.195312 19.855469 57.359375 C 19.761719 57.457031 19.660156 57.457031 19.554688 57.453125 C 19.605469 57.339844 19.660156 57.222656 19.765625 57.085938 Z M 19.765625 57.085938 "/>
<path style=" stroke:none;fill-rule:nonzero;fill:rgb(0%,0%,0%);fill-opacity:1;" d="M 4.230469 33.078125 C 4.28125 33.152344 4.285156 33.214844 4.28125 33.320312 C 4.183594 33.296875 4.089844 33.226562 3.992188 33.15625 C 4.054688 33.125 4.117188 33.089844 4.230469 33.078125 Z M 4.230469 33.078125 "/>
<path style=" stroke:none;fill-rule:nonzero;fill:rgb(0%,0%,0%);fill-opacity:1;" d="M 41.1875 4.804688 C 41.242188 4.894531 41.238281 4.964844 41.234375 5.09375 C 41.136719 5.058594 41.035156 4.96875 40.9375 4.875 C 41 4.847656 41.066406 4.820312 41.1875 4.804688 Z M 41.1875 4.804688 "/>
<path style=" stroke:none;fill-rule:nonzero;fill:rgb(0%,0%,0%);fill-opacity:1;" d="M 4.75 41.609375 C 4.796875 41.625 4.804688 41.691406 4.796875 41.722656 C 4.714844 41.71875 4.636719 41.679688 4.558594 41.644531 C 4.609375 41.625 4.65625 41.609375 4.75 41.609375 Z M 4.75 41.609375 "/>
<path style=" stroke:none;fill-rule:nonzero;fill:rgb(0%,0%,0%);fill-opacity:1;" d="M 45.574219 19.03125 C 45.636719 19.003906 45.707031 18.972656 45.890625 18.945312 C 46.003906 18.945312 45.972656 18.957031 45.980469 18.957031 C 45.917969 18.988281 45.847656 19.015625 45.660156 19.046875 C 45.546875 19.046875 45.582031 19.035156 45.574219 19.03125 Z M 45.574219 19.03125 "/>
<path style=" stroke:none;fill-rule:nonzero;fill:rgb(0%,0%,0%);fill-opacity:1;" d="M 51.253906 12.648438 C 51.285156 12.582031 51.367188 12.554688 51.449219 12.539062 C 51.453125 12.539062 51.476562 12.617188 51.488281 12.660156 C 51.425781 12.671875 51.367188 12.683594 51.253906 12.648438 Z M 51.253906 12.648438 "/>
<path style=" stroke:none;fill-rule:nonzero;fill:rgb(0%,0%,0%);fill-opacity:1;" d="M 56.820312 46.363281 C 56.933594 46.351562 57.007812 46.398438 57.082031 46.445312 C 56.984375 46.4375 56.882812 46.429688 56.820312 46.363281 Z M 56.820312 46.363281 "/>
<path style=" stroke:none;fill-rule:nonzero;fill:rgb(0%,0%,0%);fill-opacity:1;" d="M 26.335938 7.433594 C 26.300781 7.507812 26.21875 7.535156 26.136719 7.542969 C 26.125 7.542969 26.101562 7.476562 26.082031 7.441406 C 26.152344 7.417969 26.222656 7.398438 26.335938 7.433594 Z M 26.335938 7.433594 "/>
<path style=" stroke:none;fill-rule:nonzero;fill:rgb(0%,0%,0%);fill-opacity:1;" d="M 32.820312 6.804688 C 32.789062 6.816406 32.734375 6.773438 32.699219 6.703125 C 32.742188 6.703125 32.773438 6.726562 32.820312 6.804688 Z M 32.820312 6.804688 "/>
<path style=" stroke:none;fill-rule:nonzero;fill:rgb(0%,0%,0%);fill-opacity:1;" d="M 27.148438 54.320312 C 27.203125 54.21875 27.296875 54.164062 27.390625 54.113281 C 27.378906 54.207031 27.367188 54.304688 27.308594 54.433594 C 27.230469 54.433594 27.207031 54.402344 27.148438 54.320312 Z M 27.148438 54.320312 "/>
</g>
</svg>
