<svg width="19" height="19" viewBox="0 0 19 19" fill="none" xmlns="http://www.w3.org/2000/svg">
<path d="M7.75057 1C8.04597 1 8.33847 1.05498 8.61139 1.1618C8.8843 1.26862 9.13228 1.42519 9.34116 1.62257C9.55004 1.81994 9.71573 2.05427 9.82877 2.31215C9.94182 2.57004 10 2.84644 10 3.12557V15.879C9.99879 16.4094 9.78774 16.9203 9.40831 17.3112C9.02888 17.7021 8.50848 17.9448 7.94934 17.9917C7.39019 18.0386 6.83271 17.8862 6.38638 17.5645C5.94005 17.2428 5.63713 16.7751 5.53713 16.2531C5.16022 16.3324 4.76807 16.3187 4.3984 16.2132C4.02874 16.1078 3.69402 15.9143 3.42646 15.6512C3.15891 15.3881 2.96752 15.0644 2.87073 14.7112C2.77393 14.3579 2.77499 13.9871 2.8738 13.6344C2.35629 13.4773 1.90102 13.1763 1.56758 12.7706C1.23414 12.365 1.03806 11.8737 1.005 11.3611C0.97194 10.8484 1.10345 10.3382 1.3823 9.89735C1.66116 9.45647 2.07438 9.10541 2.56788 8.89013C2.27446 8.61622 2.06639 8.27135 1.96641 7.89324C1.86643 7.51512 1.8784 7.1183 2.001 6.74618C2.1236 6.37406 2.35212 6.04095 2.66156 5.78327C2.97101 5.5256 3.34947 5.35328 3.75558 5.28515C3.69006 5.0068 3.68449 4.71884 3.73918 4.43841C3.79388 4.15799 3.90773 3.89082 4.07396 3.65283C4.24019 3.41484 4.45539 3.21089 4.70676 3.05312C4.95812 2.89535 5.24052 2.78698 5.53713 2.73447C5.63376 2.24666 5.90798 1.80619 6.31226 1.4894C6.71653 1.1726 7.22537 0.999468 7.75057 1Z" stroke="white" stroke-width="2" stroke-linecap="round" stroke-linejoin="round"/>
<path d="M11.9995 1C11.4692 1 10.9606 1.22394 10.5856 1.62257C10.2107 2.02119 10 2.56184 10 3.12557V15.879C10.0011 16.4094 10.1887 16.9203 10.5259 17.3112C10.8632 17.7021 11.3258 17.9448 11.8228 17.9917C12.3198 18.0386 12.8154 17.8862 13.2121 17.5645C13.6088 17.2428 13.8781 16.7751 13.967 16.2531C14.302 16.3324 14.6506 16.3187 14.9792 16.2132C15.3078 16.1078 15.6053 15.9143 15.8431 15.6512C16.081 15.3881 16.2511 15.0644 16.3371 14.7112C16.4232 14.3579 16.4222 13.9871 16.3344 13.6344C16.7944 13.4773 17.1991 13.1763 17.4955 12.7706C17.7919 12.365 17.9662 11.8737 17.9956 11.3611C18.0249 10.8484 17.908 10.3382 17.6602 9.89735C17.4123 9.45647 17.045 9.10541 16.6063 8.89013C16.8671 8.61622 17.0521 8.27135 17.141 7.89324C17.2298 7.51512 17.2192 7.1183 17.1102 6.74618C17.0012 6.37406 16.7981 6.04095 16.5231 5.78327C16.248 5.5256 15.9116 5.35328 15.5506 5.28515C15.6088 5.0068 15.6138 4.71884 15.5652 4.43841C15.5166 4.15799 15.4153 3.89082 15.2676 3.65283C15.1198 3.41484 14.9285 3.21089 14.7051 3.05312C14.4817 2.89535 14.2306 2.78698 13.967 2.73447C13.8811 2.24666 13.6373 1.80619 13.278 1.4894C12.9186 1.1726 12.4663 0.999468 11.9995 1Z" stroke="white" stroke-width="2" stroke-linecap="round" stroke-linejoin="round"/>
</svg>
